<svg width="28" height="28" viewBox="0 0 28 28" fill="none" xmlns="http://www.w3.org/2000/svg">
<g clip-path="url(#clip0_116_1682)">
<path fill-rule="evenodd" clip-rule="evenodd" d="M23.6427 0.195466C24.2193 -0.0150356 24.8437 -0.0574268 25.4437 0.0734344C26.0495 0.205606 26.6047 0.508962 27.0431 0.947438C27.4815 1.38591 27.7849 1.94107 27.9171 2.54692C28.0479 3.14676 28.0055 3.77132 27.7951 4.34778L20.6471 25.7718C20.4729 26.2986 20.1659 26.7734 19.7561 27.1478C19.3475 27.5212 18.8501 27.7834 18.3114 27.9098C17.7725 28.0412 17.2088 28.03 16.6754 27.8776C16.1426 27.7254 15.6585 27.4374 15.2705 27.0418L11.4358 23.2246L7.40772 25.3076C7.09362 25.47 6.71708 25.4544 6.41742 25.2666C6.11778 25.079 5.93956 24.7468 5.94874 24.3934L6.11388 18.0259L20.2037 7.79106C20.7623 7.38534 20.8863 6.60364 20.4805 6.0451C20.0747 5.48654 19.2931 5.36266 18.7346 5.76838L4.4056 16.1768L0.946189 12.7174C0.571543 12.343 0.295371 11.8811 0.143178 11.3738C-0.00793338 10.8701 -0.0324841 10.3369 0.0716147 9.82158C0.175848 9.25856 0.427531 8.73316 0.801093 8.29902C1.17721 7.8619 1.66324 7.53316 2.20894 7.34678L2.21568 7.34448L23.6427 0.195466Z" fill="#BBB5B0"/>
</g>
<defs>
<clipPath id="clip0_116_1682">
<rect width="28" height="28" fill="white"/>
</clipPath>
</defs>
</svg>
