<svg width="44" height="44" viewBox="0 0 44 44" fill="none" xmlns="http://www.w3.org/2000/svg">
<path d="M33 30.25C32.6787 30.2506 32.3674 30.1387 32.12 29.9338L25.905 24.75H23.375C20.4576 24.75 17.6597 23.5911 15.5968 21.5282C13.5339 19.4653 12.375 16.6674 12.375 13.75C12.375 10.8326 13.5339 8.03473 15.5968 5.97183C17.6597 3.90893 20.4576 2.75 23.375 2.75H31.625C34.2968 2.75763 36.8745 3.73744 38.8768 5.50649C40.8791 7.27554 42.1691 9.71287 42.5059 12.3634C42.8426 15.0139 42.2032 17.6964 40.707 19.91C39.2108 22.1236 36.96 23.7169 34.375 24.3925V28.875C34.3757 29.138 34.3009 29.3957 34.1595 29.6174C34.0182 29.8392 33.8162 30.0158 33.5775 30.1262C33.3962 30.2088 33.1992 30.2511 33 30.25ZM23.375 5.5C21.187 5.5 19.0885 6.36919 17.5414 7.91637C15.9942 9.46354 15.125 11.562 15.125 13.75C15.125 15.938 15.9942 18.0365 17.5414 19.5836C19.0885 21.1308 21.187 22 23.375 22H26.4C26.7213 21.9994 27.0326 22.1113 27.28 22.3162L31.625 25.9325V23.265C31.6217 22.9314 31.7399 22.6079 31.9574 22.3549C32.175 22.1019 32.4771 21.9367 32.8075 21.89C34.8395 21.557 36.6735 20.4762 37.9492 18.8599C39.2249 17.2436 39.85 15.2087 39.7019 13.1549C39.5537 11.1012 38.6429 9.17709 37.1484 7.76066C35.6539 6.34423 33.6837 5.53787 31.625 5.5H23.375Z" fill="#101820" fill-opacity="0.62"/>
<path d="M28.875 12.375H26.125V15.125H28.875V12.375Z" fill="#101820" fill-opacity="0.62"/>
<path d="M22 12.375H19.25V15.125H22V12.375Z" fill="#101820" fill-opacity="0.62"/>
<path d="M35.75 12.375H33V15.125H35.75V12.375Z" fill="#101820" fill-opacity="0.62"/>
<path d="M11 41.25C10.8008 41.251 10.6038 41.2088 10.4225 41.1262C10.1838 41.0157 9.98184 40.8392 9.84049 40.6174C9.69914 40.3956 9.62435 40.1379 9.625 39.875V35.3925C7.4372 34.8096 5.48256 33.5658 4.02783 31.8309C2.5731 30.096 1.68916 27.9544 1.49666 25.6985C1.30415 23.4426 1.81246 21.1822 2.9522 19.2259C4.09194 17.2696 5.80759 15.7126 7.865 14.7675C8.03106 14.6799 8.21328 14.6274 8.40044 14.6129C8.58759 14.5985 8.77571 14.6226 8.95321 14.6836C9.13072 14.7447 9.29384 14.8414 9.43254 14.9679C9.57123 15.0944 9.68256 15.2479 9.75967 15.4191C9.83677 15.5902 9.87802 15.7753 9.88088 15.963C9.88373 16.1507 9.84812 16.337 9.77625 16.5104C9.70438 16.6838 9.59776 16.8406 9.46297 16.9713C9.32818 17.1019 9.16807 17.2035 8.9925 17.27C7.3699 18.0057 6.02906 19.2468 5.17048 20.8079C4.31191 22.369 3.98175 24.166 4.22937 25.9304C4.47699 27.6947 5.28909 29.3314 6.54422 30.5958C7.79935 31.8602 9.43007 32.6843 11.1925 32.945C11.5229 32.9916 11.825 33.1569 12.0426 33.4099C12.2601 33.6628 12.3783 33.9863 12.375 34.32V36.9875L16.72 33.3712C16.9596 33.1463 17.2717 33.0146 17.6 33H20.625C21.7261 33.002 22.8163 32.7814 23.83 32.3513C24.8437 31.9213 25.76 31.2907 26.5238 30.4975C26.779 30.2349 27.1281 30.0845 27.4943 30.0793C27.6756 30.0768 27.8556 30.11 28.0241 30.177C28.1926 30.244 28.3462 30.3436 28.4763 30.47C28.6063 30.5964 28.7101 30.7471 28.7818 30.9136C28.8536 31.0802 28.8918 31.2592 28.8944 31.4405C28.8969 31.6218 28.8638 31.8019 28.7967 31.9703C28.7297 32.1388 28.6302 32.2924 28.5038 32.4225C27.4792 33.475 26.2542 34.3118 24.901 34.8833C23.5478 35.4548 22.0939 35.7495 20.625 35.75H18.095L11.88 40.9337C11.6326 41.1387 11.3213 41.2506 11 41.25Z" fill="#101820" fill-opacity="0.62"/>
</svg>
