<svg width="50" height="50" viewBox="0 0 50 50" fill="none" xmlns="http://www.w3.org/2000/svg">
<path fill-rule="evenodd" clip-rule="evenodd" d="M25 11.6521L26.1729 10.4791C28.275 8.37705 31.1271 7.1958 34.0979 7.1958C37.0708 7.1958 39.9229 8.37705 42.025 10.4791C42.025 10.4812 42.0271 10.4833 42.0292 10.4854C44.1312 12.5854 45.3125 15.4375 45.3125 18.4104C45.3125 21.1833 44.8396 25.1958 40.2771 30.8333C35.9792 36.1416 31.7958 39.702 25.6625 42.5687C25.4542 42.6666 25.2333 42.7145 25.0167 42.7166H24.9833C24.7667 42.7145 24.5458 42.6666 24.3375 42.5687C18.2042 39.702 14.0208 36.1416 9.72292 30.8333C5.16042 25.1958 4.6875 21.1833 4.6875 18.4104C4.6875 15.4375 5.86875 12.5854 7.97083 10.4854C7.97292 10.4833 7.975 10.4812 7.975 10.4791C10.0771 8.37705 12.9292 7.1958 15.9021 7.1958C18.8729 7.1958 21.725 8.37705 23.8271 10.4791L25 11.6521ZM25 39.4229C30.3167 36.8229 34.0292 33.5854 37.8479 28.8666C41.7021 24.1062 42.1875 20.7521 42.1875 18.4104C42.1875 16.2666 41.3354 14.2104 39.8208 12.6937C39.8187 12.6916 39.8167 12.6896 39.8146 12.6896C38.2979 11.1729 36.2417 10.3208 34.0979 10.3208C31.9542 10.3208 29.9 11.1729 28.3833 12.6896C27.6583 13.4125 26.8958 14.175 26.1062 14.9646C25.8021 15.2708 25.4 15.4229 25 15.4229C24.6 15.4229 24.1979 15.2708 23.8937 14.9646C23.1042 14.175 22.3417 13.4125 21.6167 12.6896C20.1 11.1729 18.0458 10.3208 15.9021 10.3208C13.7583 10.3208 11.7021 11.1729 10.1854 12.6896C10.1833 12.6896 10.1813 12.6916 10.1792 12.6937C8.66458 14.2104 7.8125 16.2666 7.8125 18.4104C7.8125 20.7521 8.29792 24.1062 12.1521 28.8666C15.9708 33.5854 19.6833 36.8229 25 39.4229Z" fill="black" fill-opacity="0.62"/>
</svg>
