<svg width="46" height="47" viewBox="0 0 46 47" fill="none" xmlns="http://www.w3.org/2000/svg">
<path d="M28.0593 11.356H17.9408C15.6738 11.356 13.9973 13.4053 13.9973 15.1996V29.4732C13.9973 29.7906 14.1673 30.0404 14.4781 30.0404H16.8107V46.2831C16.8107 46.6005 17.1357 47 17.4465 47H28.5559C28.8665 47 29.1894 46.6005 29.1894 46.2831V30.0404H31.5219C31.8325 30.0404 32.0028 29.7909 32.0028 29.4732V15.1996C32.0028 13.3642 30.4314 11.356 28.0593 11.356ZM30.8773 28.8906H28.5558C28.2452 28.8906 28.064 29.1559 28.064 29.4732V45.8502H17.9359V29.4732C17.9359 29.1558 17.757 28.8906 17.4464 28.8906H15.1226V15.1996C15.1226 14.1004 16.2584 12.5059 17.9408 12.5059H28.0595C29.8562 12.5059 30.8774 14.0595 30.8774 15.1996L30.8773 28.8906Z" fill="black" fill-opacity="0.62"/>
<path d="M23 10.2025C25.7532 10.2025 27.9928 7.9141 27.9928 5.1014C27.9928 2.2884 25.7532 0 23 0C20.2472 0 18.0074 2.2884 18.0074 5.1014C18.0074 7.9141 20.2472 10.2025 23 10.2025ZM23 1.14978C25.1326 1.14978 26.8675 2.92249 26.8675 5.10134C26.8675 7.28025 25.1326 9.05266 23 9.05266C20.8675 9.05266 19.1328 7.28025 19.1328 5.10134C19.1328 2.92255 20.8675 1.14978 23 1.14978Z" fill="black" fill-opacity="0.62"/>
</svg>
